{
  "asset": {
    "version": "2.0",
    "generator": "THREE.GLTFExporter"
  },
  "scenes": [
    {
      "nodes": [
        0
      ]
    }
  ],
  "scene": 0,
  "nodes": [
    {
      "children": [
        10
      ],
      "matrix": [
        0.01,
        0,
        0,
        0,
        0,
        0.01,
        0,
        0,
        0,
        0,
        0.01,
        0,
        0,
        0,
        0,
        1
      ]
    },
    {
      "matrix": [
        2.3934436687728318,
        0,
        0,
        0,
        0,
        2.3934436687728318,
        0,
        0,
        0,
        0,
        2.3934436687728318,
        0,
        5.684341886080802e-14,
        260.53628874715986,
        3,
        1
      ],
      "name": "Cylinder 4",
      "mesh": 0
    },
    {
      "matrix": [
        2.3934436687728318,
        0,
        0,
        0,
        0,
        2.3934436687728318,
        0,
        0,
        0,
        0,
        2.3934436687728318,
        0,
        5.684341886080802e-14,
        208.43456976703658,
        3,
        1
      ],
      "name": "Cylinder 2",
      "mesh": 1
    },
    {
      "matrix": [
        7.2516387324082,
        0,
        0,
        0,
        0,
        7.2516387324082,
        0,
        0,
        0,
        0,
        7.2516387324082,
        0,
        5.684341886080802e-14,
        188.74236963653198,
        3,
        1
      ],
      "name": "Cylinder 3",
      "mesh": 2
    },
    {
      "matrix": [
        1.9598711264456237,
        0,
        0,
        0,
        0,
        2.278124242406672,
        0,
        0,
        0,
        0,
        1.9598711264456237,
        0,
        5.684341886080802e-14,
        234.66113298262877,
        2.9999999999999996,
        1
      ],
      "name": "Cylinder 6",
      "mesh": 3
    },
    {
      "matrix": [
        6.071969854103385,
        0,
        0,
        0,
        0,
        7.057964953482471,
        0,
        0,
        0,
        0,
        6.071969854103385,
        0,
        5.684341886080802e-14,
        99.68055070536667,
        3.0000000000000004,
        1
      ],
      "name": "Cylinder 5",
      "mesh": 4
    },
    {
      "matrix": [
        7.2516387324082,
        0,
        0,
        0,
        0,
        7.2516387324082,
        0,
        0,
        0,
        0,
        7.2516387324082,
        0,
        5.684341886080802e-14,
        102.61500055379823,
        3,
        1
      ],
      "name": "Cylinder",
      "mesh": 5
    },
    {
      "matrix": [
        0.5883484054145521,
        0.39223227027636803,
        -0.7071067811865475,
        0,
        -0.554700196225229,
        0.8320502943378437,
        0,
        0,
        0.588348405414552,
        0.392232270276368,
        0.7071067811865476,
        0,
        0,
        0,
        0,
        1
      ],
      "name": "Directional Light",
      "extensions": {
        "KHR_lights_punctual": {
          "light": 0
        }
      }
    },
    {
      "matrix": [
        0.9948319246795166,
        -1.408088034365873e-8,
        0.10153542060999397,
        0,
        0.033223348951856135,
        0.9449518835981181,
        -0.32551827409347056,
        0,
        -0.09594608237375711,
        0.3272093178446611,
        0.9400683015572644,
        0,
        -75.67438391827947,
        472.9272550330082,
        947.2357501924724,
        1
      ],
      "camera": 0
    },
    {
      "matrix": [
        1,
        0,
        0,
        0,
        0,
        1,
        0,
        0,
        0,
        0,
        1,
        0,
        0,
        1,
        0,
        1
      ],
      "name": "Default Ambient Light"
    },
    {
      "name": "Scene 1",
      "children": [
        1,
        2,
        3,
        4,
        5,
        6,
        7,
        8,
        9
      ]
    }
  ],
  "bufferViews": [
    {
      "buffer": 0,
      "byteOffset": 0,
      "byteLength": 10800,
      "target": 34962,
      "byteStride": 12
    },
    {
      "buffer": 0,
      "byteOffset": 10800,
      "byteLength": 10800,
      "target": 34962,
      "byteStride": 12
    },
    {
      "buffer": 0,
      "byteOffset": 21600,
      "byteLength": 7200,
      "target": 34962,
      "byteStride": 8
    },
    {
      "buffer": 0,
      "byteOffset": 28800,
      "byteLength": 10368,
      "target": 34963
    },
    {
      "buffer": 0,
      "byteOffset": 39168,
      "byteLength": 12000,
      "target": 34962,
      "byteStride": 12
    },
    {
      "buffer": 0,
      "byteOffset": 51168,
      "byteLength": 12000,
      "target": 34962,
      "byteStride": 12
    },
    {
      "buffer": 0,
      "byteOffset": 63168,
      "byteLength": 8000,
      "target": 34962,
      "byteStride": 8
    },
    {
      "buffer": 0,
      "byteOffset": 71168,
      "byteLength": 11520,
      "target": 34963
    },
    {
      "buffer": 0,
      "byteOffset": 82688,
      "byteLength": 10800,
      "target": 34962,
      "byteStride": 12
    },
    {
      "buffer": 0,
      "byteOffset": 93488,
      "byteLength": 10800,
      "target": 34962,
      "byteStride": 12
    },
    {
      "buffer": 0,
      "byteOffset": 104288,
      "byteLength": 7200,
      "target": 34962,
      "byteStride": 8
    },
    {
      "buffer": 0,
      "byteOffset": 111488,
      "byteLength": 10368,
      "target": 34963
    },
    {
      "buffer": 0,
      "byteOffset": 121856,
      "byteLength": 1776,
      "target": 34962,
      "byteStride": 12
    },
    {
      "buffer": 0,
      "byteOffset": 123632,
      "byteLength": 1776,
      "target": 34962,
      "byteStride": 12
    },
    {
      "buffer": 0,
      "byteOffset": 125408,
      "byteLength": 1184,
      "target": 34962,
      "byteStride": 8
    },
    {
      "buffer": 0,
      "byteOffset": 126592,
      "byteLength": 576,
      "target": 34963
    },
    {
      "buffer": 0,
      "byteOffset": 127168,
      "byteLength": 12000,
      "target": 34962,
      "byteStride": 12
    },
    {
      "buffer": 0,
      "byteOffset": 139168,
      "byteLength": 12000,
      "target": 34962,
      "byteStride": 12
    },
    {
      "buffer": 0,
      "byteOffset": 151168,
      "byteLength": 8000,
      "target": 34962,
      "byteStride": 8
    },
    {
      "buffer": 0,
      "byteOffset": 159168,
      "byteLength": 11520,
      "target": 34963
    }
  ],
  "buffers": [
    {
      "byteLength": 170688,
      "uri": "data:application/octet-stream;base64,"
    }
  ],
  "accessors": [
    {
      "bufferView": 0,
      "componentType": 5126,
      "count": 900,
      "max": [
        32.5,
        2.899073600769043,
        32.5
      ],
      "min": [
        -32.5,
        -2.899073600769043,
        -32.5
      ],
      "type": "VEC3"
    },
    {
      "bufferView": 1,
      "componentType": 5126,
      "count": 900,
      "max": [
        1,
        1,
        1
      ],
      "min": [
        -1,
        -1,
        -1
      ],
      "type": "VEC3"
    },
    {
      "bufferView": 2,
      "componentType": 5126,
      "count": 900,
      "max": [
        1,
        1
      ],
      "min": [
        0,
        0
      ],
      "type": "VEC2"
    },
    {
      "bufferView": 3,
      "componentType": 5123,
      "count": 5184,
      "max": [
        899
      ],
      "min": [
        0
      ],
      "type": "SCALAR"
    },
    {
      "bufferView": 4,
      "componentType": 5126,
      "count": 1000,
      "max": [
        32.5,
        19.75904083251953,
        32.5
      ],
      "min": [
        -32.5,
        -19.75904083251953,
        -32.5
      ],
      "type": "VEC3"
    },
    {
      "bufferView": 5,
      "componentType": 5126,
      "count": 1000,
      "max": [
        1,
        1,
        1
      ],
      "min": [
        -1,
        -1,
        -1
      ],
      "type": "VEC3"
    },
    {
      "bufferView": 6,
      "componentType": 5126,
      "count": 1000,
      "max": [
        1,
        1
      ],
      "min": [
        0,
        0
      ],
      "type": "VEC2"
    },
    {
      "bufferView": 7,
      "componentType": 5123,
      "count": 5760,
      "max": [
        999
      ],
      "min": [
        0
      ],
      "type": "SCALAR"
    },
    {
      "bufferView": 8,
      "componentType": 5126,
      "count": 900,
      "max": [
        32.5,
        1.8390305042266846,
        32.5
      ],
      "min": [
        -32.5,
        -1.8390305042266846,
        -32.5
      ],
      "type": "VEC3"
    },
    {
      "bufferView": 9,
      "componentType": 5126,
      "count": 900,
      "max": [
        1,
        1,
        1
      ],
      "min": [
        -1,
        -1,
        -1
      ],
      "type": "VEC3"
    },
    {
      "bufferView": 10,
      "componentType": 5126,
      "count": 900,
      "max": [
        1,
        1
      ],
      "min": [
        0,
        0
      ],
      "type": "VEC2"
    },
    {
      "bufferView": 11,
      "componentType": 5123,
      "count": 5184,
      "max": [
        899
      ],
      "min": [
        0
      ],
      "type": "SCALAR"
    },
    {
      "bufferView": 12,
      "componentType": 5126,
      "count": 148,
      "max": [
        32.5,
        12.476333618164062,
        32.5
      ],
      "min": [
        -32.5,
        -12.476333618164062,
        -32.5
      ],
      "type": "VEC3"
    },
    {
      "bufferView": 13,
      "componentType": 5126,
      "count": 148,
      "max": [
        1,
        1,
        1
      ],
      "min": [
        -1,
        -1,
        -1
      ],
      "type": "VEC3"
    },
    {
      "bufferView": 14,
      "componentType": 5126,
      "count": 148,
      "max": [
        1,
        1
      ],
      "min": [
        0,
        0
      ],
      "type": "VEC2"
    },
    {
      "bufferView": 15,
      "componentType": 5123,
      "count": 288,
      "max": [
        147
      ],
      "min": [
        0
      ],
      "type": "SCALAR"
    },
    {
      "bufferView": 16,
      "componentType": 5126,
      "count": 1000,
      "max": [
        32.5,
        12.476333618164062,
        32.5
      ],
      "min": [
        -32.5,
        -12.476333618164062,
        -32.5
      ],
      "type": "VEC3"
    },
    {
      "bufferView": 17,
      "componentType": 5126,
      "count": 1000,
      "max": [
        1,
        1,
        1
      ],
      "min": [
        -1,
        -1,
        -1
      ],
      "type": "VEC3"
    },
    {
      "bufferView": 18,
      "componentType": 5126,
      "count": 1000,
      "max": [
        1,
        1
      ],
      "min": [
        0,
        0
      ],
      "type": "VEC2"
    },
    {
      "bufferView": 19,
      "componentType": 5123,
      "count": 5760,
      "max": [
        999
      ],
      "min": [
        0
      ],
      "type": "SCALAR"
    }
  ],
  "materials": [
    {
      "pbrMetallicRoughness": {
        "baseColorFactor": [
          0.21952619971859377,
          0.10343463192453894,
          0.08228270712149792,
          1
        ],
        "metallicFactor": 0,
        "roughnessFactor": 0.995
      },
      "doubleSided": false
    },
    {
      "pbrMetallicRoughness": {
        "baseColorFactor": [
          1,
          0.9977209731749854,
          0.9977209731749854,
          1
        ],
        "metallicFactor": 0,
        "roughnessFactor": 0.995
      },
      "doubleSided": false
    },
    {
      "pbrMetallicRoughness": {
        "baseColorFactor": [
          0.21952619971859377,
          0.10343463192453894,
          0.08228270712149792,
          1
        ],
        "metallicFactor": 0,
        "roughnessFactor": 0.995
      },
      "doubleSided": false
    },
    {
      "pbrMetallicRoughness": {
        "baseColorFactor": [
          0.07273004937974968,
          0.38042079624304365,
          0.6610620358606748,
          1
        ],
        "metallicFactor": 0,
        "roughnessFactor": 0.995
      },
      "doubleSided": false
    },
    {
      "pbrMetallicRoughness": {
        "baseColorFactor": [
          0.07273004937974968,
          0.38042079624304365,
          0.6610620358606748,
          1
        ],
        "metallicFactor": 0,
        "roughnessFactor": 0.995
      },
      "doubleSided": false
    },
    {
      "pbrMetallicRoughness": {
        "baseColorFactor": [
          1,
          0.9977209731749854,
          0.9977209731749854,
          1
        ],
        "metallicFactor": 0,
        "roughnessFactor": 0.995
      },
      "doubleSided": false
    }
  ],
  "meshes": [
    {
      "primitives": [
        {
          "mode": 4,
          "attributes": {
            "POSITION": 0,
            "NORMAL": 1,
            "TEXCOORD_0": 2
          },
          "extras": {
            "parameters": {
              "width": 65,
              "radialSegments": 24,
              "heightSegments": 1,
              "openEnded": false,
              "thetaStart": 0,
              "thetaLength": 360,
              "cornerRadius": 8,
              "cornerSegments": 8,
              "hollow": 0.81,
              "depth": 65,
              "height": 5.798147255090682,
              "radiusTop": 32.5,
              "radiusBottom": 32.5,
              "type": "CylinderGeometry"
            },
            "type": "CylinderGeometry"
          },
          "indices": 3,
          "material": 0
        }
      ]
    },
    {
      "primitives": [
        {
          "mode": 4,
          "attributes": {
            "POSITION": 4,
            "NORMAL": 5,
            "TEXCOORD_0": 6
          },
          "extras": {
            "parameters": {
              "width": 65,
              "radialSegments": 24,
              "heightSegments": 1,
              "openEnded": false,
              "thetaStart": 0,
              "thetaLength": 360,
              "cornerRadius": 8,
              "cornerSegments": 8,
              "hollow": 0.81,
              "depth": 65,
              "height": 39.51808335849816,
              "radiusTop": 32.5,
              "radiusBottom": 32.5,
              "type": "CylinderGeometry"
            },
            "type": "CylinderGeometry"
          },
          "indices": 7,
          "material": 1
        }
      ]
    },
    {
      "primitives": [
        {
          "mode": 4,
          "attributes": {
            "POSITION": 8,
            "NORMAL": 9,
            "TEXCOORD_0": 10
          },
          "extras": {
            "parameters": {
              "width": 65,
              "radialSegments": 24,
              "heightSegments": 1,
              "openEnded": false,
              "thetaStart": 0,
              "thetaLength": 360,
              "cornerRadius": 8,
              "cornerSegments": 8,
              "hollow": 0.82,
              "depth": 65,
              "height": 3.6780609998780136,
              "radiusTop": 32.5,
              "radiusBottom": 32.5,
              "type": "CylinderGeometry"
            },
            "type": "CylinderGeometry"
          },
          "indices": 11,
          "material": 2
        }
      ]
    },
    {
      "primitives": [
        {
          "mode": 4,
          "attributes": {
            "POSITION": 12,
            "NORMAL": 13,
            "TEXCOORD_0": 14
          },
          "extras": {
            "parameters": {
              "width": 65,
              "radialSegments": 24,
              "heightSegments": 1,
              "openEnded": false,
              "thetaStart": 0,
              "thetaLength": 360,
              "cornerRadius": 0,
              "cornerSegments": 8,
              "hollow": 0,
              "depth": 65,
              "height": 24.952666888562163,
              "radiusTop": 32.5,
              "radiusBottom": 32.5,
              "type": "CylinderGeometry"
            },
            "type": "CylinderGeometry"
          },
          "indices": 15,
          "material": 3
        }
      ]
    },
    {
      "primitives": [
        {
          "mode": 4,
          "attributes": {
            "POSITION": 12,
            "NORMAL": 13,
            "TEXCOORD_0": 14
          },
          "extras": {
            "parameters": {
              "width": 65,
              "radialSegments": 24,
              "heightSegments": 1,
              "openEnded": false,
              "thetaStart": 0,
              "thetaLength": 360,
              "cornerRadius": 0,
              "cornerSegments": 8,
              "hollow": 0,
              "depth": 65,
              "height": 24.952666888562163,
              "radiusTop": 32.5,
              "radiusBottom": 32.5,
              "type": "CylinderGeometry"
            },
            "type": "CylinderGeometry"
          },
          "indices": 15,
          "material": 4
        }
      ]
    },
    {
      "primitives": [
        {
          "mode": 4,
          "attributes": {
            "POSITION": 16,
            "NORMAL": 17,
            "TEXCOORD_0": 18
          },
          "extras": {
            "parameters": {
              "width": 65,
              "radialSegments": 24,
              "heightSegments": 1,
              "openEnded": false,
              "thetaStart": 0,
              "thetaLength": 360,
              "cornerRadius": 8,
              "cornerSegments": 8,
              "hollow": 0.82,
              "depth": 65,
              "height": 24.952666888562163,
              "radiusTop": 32.5,
              "radiusBottom": 32.5,
              "type": "CylinderGeometry"
            },
            "type": "CylinderGeometry"
          },
          "indices": 19,
          "material": 5
        }
      ]
    }
  ],
  "extensions": {
    "KHR_lights_punctual": {
      "lights": [
        {
          "name": "Directional Light",
          "color": [
            1,
            1,
            1
          ],
          "intensity": 0.7,
          "type": "directional"
        }
      ]
    }
  },
  "cameras": [
    {
      "type": "orthographic",
      "orthographic": {
        "xmag": 9.023871824187971,
        "ymag": 5.383629652933911,
        "zfar": 100000,
        "znear": 0
      }
    }
  ],
  "extensionsUsed": [
    "KHR_lights_punctual"
  ]
}